<?xml version="1.0" encoding="UTF-8" standalone="no"?><!DOCTYPE svg PUBLIC "-//W3C//DTD SVG 1.1//EN" "http://www.w3.org/Graphics/SVG/1.1/DTD/svg11.dtd"><svg width="100%" height="100%" viewBox="0 0 120 91" version="1.1" xmlns="http://www.w3.org/2000/svg" xmlns:xlink="http://www.w3.org/1999/xlink" xml:space="preserve" xmlns:serif="http://www.serif.com/" style="fill-rule:evenodd;clip-rule:evenodd;stroke-linejoin:round;stroke-miterlimit:2;"><path d="M54.31,90.616l-0.011,0.008c-20.431,-5.266 -38.532,-8.268 -52.83,-7.548l-0.611,0.031l-0,-73.649l0.477,-0.088c0.622,-0.113 1.247,-0.213 1.877,-0.3l-0,-2.79l0.411,-0.126c0.662,-0.203 1.34,-0.379 2.033,-0.53l-0,-1.214l0.118,-0.156c1.543,-2.035 3.885,-3.152 6.809,-3.554c2.809,-0.387 6.167,-0.112 9.845,0.605c10.846,2.114 24.527,8.073 34.977,11.71l0.276,0.096l-2.141,70.305c-14.823,-5.431 -30.197,-10.167 -40.026,-10.617c-4.149,-0.19 -7.277,0.345 -8.847,2.048l-1.011,-0.395l-0,-67.635c-0.433,0.099 -0.859,0.208 -1.279,0.328c-0,5.964 -0,71.285 -0,71.285c12.674,-2.779 25.331,-0.354 38.582,4.196l3.553,2.501c-14.72,-5.446 -28.63,-8.677 -42.585,-5.401l-0.715,-0.567l-0,-68.913c-0.398,0.057 -0.795,0.119 -1.19,0.186c0,6.302 0,71.452 0,71.452c13.604,-0.581 30.562,2.105 49.644,6.87l2.644,1.862Zm8.009,-77.505l0.276,-0.096c10.45,-3.637 24.131,-9.596 34.977,-11.71c3.678,-0.717 7.036,-0.992 9.845,-0.605c2.924,0.402 5.266,1.519 6.809,3.554l0.118,0.156l0,1.214c0.693,0.151 1.371,0.327 2.033,0.53l0.411,0.126l0,2.79c0.63,0.087 1.255,0.187 1.877,0.3l0.477,0.088l0,73.649l-0.611,-0.031c-14.298,-0.72 -32.399,2.282 -52.83,7.548l-0.011,-0.008l2.644,-1.862c19.082,-4.765 36.04,-7.451 49.644,-6.87c-0,0 -0,-71.452 -0,-71.452c-0.395,-0.067 -0.792,-0.129 -1.19,-0.186l0,68.913l-0.715,0.567c-13.955,-3.276 -27.865,-0.045 -42.585,5.401l3.553,-2.501c13.251,-4.55 25.908,-6.975 38.582,-4.196l0,-71.285c-0.42,-0.12 -0.846,-0.229 -1.279,-0.328l0,67.635l-1.011,0.395c-1.57,-1.703 -4.698,-2.238 -8.847,-2.048c-9.829,0.45 -25.203,5.186 -40.026,10.617l-2.141,-70.305Z" style="fill:currentColor;"/></svg>