<?xml version="1.0" encoding="UTF-8" standalone="no"?><!DOCTYPE svg PUBLIC "-//W3C//DTD SVG 1.1//EN" "http://www.w3.org/Graphics/SVG/1.1/DTD/svg11.dtd"><svg width="100%" height="100%" viewBox="0 0 191 191" version="1.1" xmlns="http://www.w3.org/2000/svg" xmlns:xlink="http://www.w3.org/1999/xlink" xml:space="preserve" xmlns:serif="http://www.serif.com/" style="fill-rule:evenodd;clip-rule:evenodd;stroke-linejoin:round;stroke-miterlimit:2;"><rect id="Artboard2" x="0" y="0" width="190.241" height="190.241" style="fill:none;"/><clipPath id="_clip1"><rect x="0" y="0" width="190.241" height="190.241"/></clipPath><g clip-path="url(#_clip1)"><path d="M7.28,163.89c-0.404,-0.346 -0.796,-0.709 -1.175,-1.088c-3.903,-3.903 -6.096,-9.198 -6.096,-14.718l-0,-127.26c-0,-5.521 2.193,-10.815 6.096,-14.719c3.904,-3.903 9.198,-6.096 14.719,-6.096l127.26,-0c5.52,-0 10.815,2.193 14.718,6.097c0.037,0.036 0.073,0.073 0.109,0.11l16.797,16.922c0.493,0.409 0.969,0.842 1.425,1.299c0.494,0.493 0.96,1.009 1.398,1.544l1.422,1.433l-0.331,0.028c2.334,3.43 3.608,7.506 3.608,11.713l-0,127.26c-0,5.521 -2.193,10.815 -6.097,14.718c-3.903,3.904 -9.197,6.097 -14.718,6.097l-127.26,-0c-4.733,-0 -9.3,-1.612 -12.966,-4.532l0.029,0.129l-0.606,-0.606c-0.404,-0.346 -0.796,-0.709 -1.175,-1.088c-0.379,-0.378 -0.742,-0.771 -1.088,-1.175l-16.069,-16.068Z" style="fill:url(#_Linear2);"/><g><path d="M169.435,21.36c5.52,-0 10.815,2.193 14.718,6.096c3.904,3.904 6.097,9.198 6.097,14.719l-0,127.26c-0,5.52 -2.193,10.815 -6.097,14.718c-3.903,3.904 -9.198,6.097 -14.718,6.097l-127.26,-0c-5.521,-0 -10.815,-2.193 -14.719,-6.097c-3.903,-3.903 -6.096,-9.198 -6.096,-14.718l-0,-127.26c-0,-5.521 2.193,-10.815 6.096,-14.719c3.904,-3.903 9.198,-6.096 14.719,-6.096l127.26,0Z" style="fill:#ffda00;"/></g><path d="M27.456,184.153c-0.437,-0.437 -20.176,-20.263 -20.176,-20.263c-0.404,-0.346 -0.796,-0.709 -1.175,-1.088c-3.903,-3.903 -6.096,-9.198 -6.096,-14.718l-0,-127.26c-0,-5.521 2.193,-10.815 6.096,-14.719c3.904,-3.903 9.198,-6.096 14.719,-6.096l127.26,-0c5.52,-0 10.815,2.193 14.718,6.097c0.037,0.036 0.073,0.073 0.109,0.11c0,-0 20.748,20.746 21.242,21.24c3.904,3.904 6.097,9.198 6.097,14.719l-0,127.26c-0,5.52 -2.193,10.815 -6.097,14.718c-3.903,3.904 -9.198,6.097 -14.718,6.097l-127.26,-0c-5.521,-0 -10.815,-2.193 -14.719,-6.097Z" style="fill:url(#_Linear3);"/><path d="M27.456,184.153c-0.437,-0.437 -20.176,-20.263 -20.176,-20.263c-0.404,-0.346 -0.796,-0.709 -1.175,-1.088c-3.903,-3.903 -6.096,-9.198 -6.096,-14.718l-0,-127.26c-0,-5.521 2.193,-10.815 6.096,-14.719c3.904,-3.903 9.198,-6.096 14.719,-6.096l127.26,-0c5.52,-0 10.815,2.193 14.718,6.097c0.037,0.036 0.073,0.073 0.109,0.11c0,-0 20.748,20.746 21.242,21.24c3.904,3.904 6.097,9.198 6.097,14.719l-0,127.26c-0,5.52 -2.193,10.815 -6.097,14.718c-3.903,3.904 -9.198,6.097 -14.718,6.097l-127.26,-0c-5.521,-0 -10.815,-2.193 -14.719,-6.097Zm2.475,-2.475c3.248,3.247 7.652,5.072 12.244,5.072l127.26,-0c4.592,-0 8.996,-1.825 12.243,-5.072c3.247,-3.247 5.072,-7.651 5.072,-12.243l-0,-127.26c-0,-4.592 -1.825,-8.996 -5.072,-12.244c-0.494,-0.494 -21.241,-21.241 -21.241,-21.241c-0.005,-0.004 -0.01,-0.009 -0.014,-0.013c-0.033,-0.033 -0.065,-0.066 -0.098,-0.099c-3.247,-3.246 -7.65,-5.069 -12.241,-5.069l-127.26,-0c-4.592,-0 -8.996,1.824 -12.244,5.071c-3.247,3.248 -5.071,7.652 -5.071,12.244l-0,127.26c-0,4.592 1.824,8.996 5.071,12.243c0.316,0.315 0.642,0.617 0.978,0.905c0.07,0.06 0.138,0.123 0.203,0.189c-0,-0 19.733,19.82 20.17,20.257Z" style="fill:#fff42b;"/><g><circle cx="41.535" cy="41.535" r="12.888" style="fill:#ffc000;"/><clipPath id="_clip4"><circle cx="41.535" cy="41.535" r="12.888"/></clipPath><g clip-path="url(#_clip4)"><circle cx="38.498" cy="37.458" r="12.888" style="fill:#ffd450;"/></g><circle cx="170.075" cy="41.535" r="12.888" style="fill:#ffc000;"/><clipPath id="_clip5"><circle cx="170.075" cy="41.535" r="12.888"/></clipPath><g clip-path="url(#_clip5)"><circle cx="167.037" cy="37.458" r="12.888" style="fill:#ffd450;"/></g><circle cx="170.075" cy="170.075" r="12.888" style="fill:#ffc000;"/><clipPath id="_clip6"><circle cx="170.075" cy="170.075" r="12.888"/></clipPath><g clip-path="url(#_clip6)"><circle cx="167.037" cy="165.998" r="12.888" style="fill:#ffd450;"/></g><circle cx="41.535" cy="170.075" r="12.888" style="fill:#ffc000;"/><clipPath id="_clip7"><circle cx="41.535" cy="170.075" r="12.888"/></clipPath><g clip-path="url(#_clip7)"><circle cx="38.498" cy="165.998" r="12.888" style="fill:#ffd450;"/></g><path d="M60.12,93.401l0,-25.557l10.79,-9.858l69.864,-0l10.716,9.79l-0,32.804l-10.915,9.972l-15.73,-0l-3.228,2.949l-0,13.648l-28.609,0l-0,-22.253l11.552,-10.555l20.285,0l-0,-17.429l-3.251,-2.97l-30.355,-0l-3.148,2.876l-0,16.583l-27.971,-0Zm32.888,47.392l28.412,0l0,17.066l-28.412,0l-0,-17.066Z" style="fill:#545454;"/><path d="M57.136,96.385l0,-25.557l10.79,-9.858l69.864,-0l10.716,9.79l-0,32.804l-10.915,9.972l-15.73,-0l-3.228,2.949l-0,13.648l-28.609,0l-0,-22.253l11.552,-10.555l20.285,0l-0,-17.429l-3.251,-2.97l-30.355,-0l-3.149,2.876l0,16.583l-27.97,0Zm32.888,47.392l28.412,0l0,17.066l-28.412,0l-0,-17.066Z" style="fill:#545454;"/><path d="M60.12,93.401l0,-25.557l10.79,-9.858l69.864,-0l10.716,9.79l-0,32.804l-10.915,9.972l-15.73,-0l-3.228,2.949l-0,13.648l-28.609,0l-0,-22.253l11.552,-10.555l20.285,0l-0,-17.429l-3.251,-2.97l-30.355,-0l-3.148,2.876l-0,16.583l-27.971,-0Zm32.888,47.392l28.412,0l0,17.066l-28.412,0l-0,-17.066Z" style="fill:#fff;"/></g></g><defs><linearGradient id="_Linear2" x1="0" y1="0" x2="1" y2="0" gradientUnits="userSpaceOnUse" gradientTransform="matrix(-174.952,165.559,-165.559,-174.952,174.961,13.3825)"><stop offset="0" style="stop-color:#ffe055;stop-opacity:1"/><stop offset="1" style="stop-color:#ffbd14;stop-opacity:1"/></linearGradient><linearGradient id="_Linear3" x1="0" y1="0" x2="1" y2="0" gradientUnits="userSpaceOnUse" gradientTransform="matrix(-174.952,165.559,-165.559,-174.952,174.961,13.3825)"><stop offset="0" style="stop-color:#ffe055;stop-opacity:0.1"/><stop offset="1" style="stop-color:#ffbd14;stop-opacity:0.1"/></linearGradient></defs></svg>